<?xml version="1.0" encoding="UTF-8"?>
<!DOCTYPE svg PUBLIC "-//W3C//DTD SVG 1.1//EN" "http://www.w3.org/Graphics/SVG/1.1/DTD/svg11.dtd">
<!-- Creator: CorelDRAW 2017 -->
<svg xmlns="http://www.w3.org/2000/svg" xml:space="preserve" width="135px" height="135px" version="1.1" style="shape-rendering:geometricPrecision; text-rendering:geometricPrecision; image-rendering:optimizeQuality; fill-rule:evenodd; clip-rule:evenodd"
viewBox="0 0 135 135"
 xmlns:xlink="http://www.w3.org/1999/xlink">
 <defs>
  <style type="text/css">
   <![CDATA[
    .str0 {stroke:#2B2A29;stroke-width:0.48;stroke-miterlimit:22.9256}
    .fil0 {fill:none}
    .fil1 {fill:#2B2A29}
    .fil2 {fill:#F5B2B6}
   ]]>
  </style>
 </defs>
 <g id="Слой_x0020_1">
  <metadata id="CorelCorpID_0Corel-Layer"/>
  <rect class="fil0" width="135" height="135"/>
  <g id="_2040386135776">
   <path class="fil1 str0" d="M48.31 23.06l1.75 1c-0.75,1 1.51,3.52 1.01,4.52 -2.01,3.52 -3.52,6.03 -5.27,9.54 -10.05,21.6 -12.31,44.95 -1.76,72.07l-4.27 -2.77c-10.55,-26.36 -9.29,-41.93 1.51,-64.78 1.75,-3.76 4.77,-16.07 7.03,-19.58l0 0z"/>
   <path class="fil1 str0" d="M92.75 24.56l-2.01 -1c0.25,0.75 -2.26,0.75 -0.25,6.53 9.29,25.86 12.05,50.72 2.51,81.85l3.01 -2.51c8.54,-27.12 8.54,-40.67 0.76,-65.03 -0.76,-2.76 -3.02,-17.08 -4.02,-19.84l0 0z"/>
   <path class="fil1 str0" d="M62.87 78.8l6.78 3.26 6.03 -1.5c-1.51,2.51 -5.78,4.52 -5.78,6.78 -0.75,8.28 -2.26,15.82 -5.77,22.85l-2.26 -0.51c4.01,-9.54 8.53,-21.34 1,-30.88z"/>
   <polygon class="fil1 str0" points="72.66,49.92 74.92,47.91 75.42,50.93 73.67,53.19 "/>
  </g>
  <path class="fil2" d="M70.16 73.98c1.65,-0.91 0.74,0.57 2.06,-1.72 2.57,-4.48 6.1,-12.52 2.95,-16.94 -0.74,-1.05 -4.35,-1.89 -4.78,0.19 -0.79,3.79 -3.62,20.33 -0.23,18.47z"/>
 </g>
</svg>
