<?xml version="1.0" encoding="UTF-8"?>
<!DOCTYPE svg PUBLIC "-//W3C//DTD SVG 1.1//EN" "http://www.w3.org/Graphics/SVG/1.1/DTD/svg11.dtd">
<!-- Creator: CorelDRAW 2017 -->
<svg xmlns="http://www.w3.org/2000/svg" xml:space="preserve" width="11.4298mm" height="11.4298mm" version="1.1" style="shape-rendering:geometricPrecision; text-rendering:geometricPrecision; image-rendering:optimizeQuality; fill-rule:evenodd; clip-rule:evenodd"
viewBox="0 0 1142.98 1142.98"
 xmlns:xlink="http://www.w3.org/1999/xlink">
 <defs>
  <style type="text/css">
   <![CDATA[
    .fil0 {fill:none}
    .fil2 {fill:#211E21}
    .fil4 {fill:#3C3C3E}
    .fil5 {fill:#8E8F90}
    .fil6 {fill:#A8A7A8}
    .fil7 {fill:#DAD9DA}
    .fil1 {fill:#F5B2B6}
    .fil3 {fill:#FEFEFE}
   ]]>
  </style>
 </defs>
 <g id="Слой_x0020_1">
  <metadata id="CorelCorpID_0Corel-Layer"/>
  <rect class="fil0" x="-0" y="-0" width="1142.99" height="1142.99"/>
  <path class="fil1" d="M675.02 667.25c-8.08,-12.56 -14.68,-16.1 -34.18,-25.4 -16.05,-7.65 -32.66,-9.4 -51.13,-6.63 -20.52,3.08 -28.98,-3.73 -69.78,26.52 -8.48,6.28 -18.38,20.39 -0.88,22.87 20.82,2.96 7.74,7.08 29.37,-3.38 25.46,-12.31 65.32,-18.43 89.22,-0.58 40.96,30.6 47.1,1.71 37.38,-13.4z"/>
  <g id="_2747993504080">
   <path class="fil2" d="M333 937.65c0,-2.2 6.62,-33.11 6.62,-33.11l13.25 26.49 -19.87 6.62zm-139.1 72.87l8.83 -61.83c8.83,2.21 8.83,22.08 39.74,22.08 17.67,0 30.92,-6.62 44.16,-17.66 17.67,-15.46 39.75,-55.2 44.16,-79.49 2.21,8.84 -6.62,50.79 -8.83,59.62 -13.25,41.95 -44.16,48.57 -79.49,55.2 -22.07,6.62 -30.91,13.24 -48.57,22.08l0 0zm101.56 -77.28c-8.83,24.29 -52.99,41.95 -77.27,22.08 -17.67,-13.25 -8.83,-22.08 -2.21,-37.54 2.21,-6.62 15.45,-39.74 19.87,-41.95 2.21,19.87 -4.42,35.33 11.04,55.2 22.08,24.29 37.53,4.42 48.57,2.21zm178.85 -172.22c8.83,24.29 0,114.81 -26.5,123.64 -6.62,2.21 11.04,-52.99 13.25,-59.61 2.21,-8.83 13.25,-61.82 13.25,-64.03zm291.44 134.68c-68.44,-22.08 -57.4,-132.47 -39.74,-185.46 13.25,-35.33 11.04,13.24 11.04,24.28 2.21,39.75 -4.42,77.28 6.62,117.02 6.63,22.08 15.46,28.71 22.08,44.16zm-295.86 -141.3c-4.42,39.74 -17.66,70.65 -24.29,108.19 -8.83,35.32 6.63,22.07 -22.08,44.15 -22.07,15.46 -4.41,-33.12 -2.2,-39.74 11.04,-35.33 24.28,-64.03 30.91,-103.77 2.21,-8.83 6.62,-57.41 6.62,-59.62 2.21,-8.83 11.04,39.75 11.04,50.79l0 0zm298.07 -24.29c2.21,2.21 48.58,72.86 52.99,81.69 8.83,15.46 15.46,30.91 19.87,48.58 2.21,11.04 6.63,52.99 -2.2,59.61 -8.84,6.62 -35.33,-11.04 -41.95,-22.08 -11.04,-15.45 -15.46,-30.91 -17.67,-48.57 -2.21,-11.04 -11.04,-119.23 -11.04,-119.23l0 0zm-315.73 -2.21c-6.63,75.07 -39.75,123.65 -44.16,163.39 -2.21,11.04 4.41,30.91 -13.25,28.7 -13.25,0 -13.25,-50.78 -11.04,-64.03 8.83,-41.95 26.5,-83.9 39.74,-125.85 2.21,-6.63 15.46,-66.24 15.46,-66.24 0,0 11.04,22.08 11.04,24.29 4.42,8.83 2.21,30.91 2.21,39.74zm295.86 -59.61c17.66,24.28 17.66,152.34 26.5,189.88 4.41,26.49 11.03,30.91 22.07,50.78 -41.95,-8.83 -50.78,-68.44 -52.99,-103.77 0,-24.29 0,-50.78 0,-77.28 0,-17.66 -11.04,-46.37 4.42,-59.61zm-370.93 189.88l0 -2.21c-11.04,-4.42 37.53,-141.31 44.16,-163.39 6.62,-17.66 8.83,-39.74 13.24,-55.19 13.25,19.87 -48.57,183.25 -57.4,220.79l0 0zm0 -41.95l0 0c-8.83,-11.04 39.74,-194.3 50.78,-214.17l0 0c19.87,6.62 -44.16,192.09 -50.78,214.17zm516.65 108.19l-48.57 0c2.21,-22.08 11.04,-24.29 8.83,-50.79 -4.42,-44.15 -35.33,-88.31 -59.61,-123.64 -19.88,-26.5 -30.92,-48.57 -37.54,-81.69 -4.41,-28.71 2.21,-75.07 15.46,-101.57 0,2.21 -2.21,50.78 -2.21,59.62 0,17.66 0,35.32 4.42,55.19 15.45,75.07 66.23,101.57 79.48,161.18 8.83,33.12 19.87,52.99 39.74,81.7l0 0zm-481.33 59.61c-72.86,-59.61 -88.31,-134.68 -59.61,-220.79 30.91,-88.32 61.82,-141.31 68.45,-240.67 6.62,-4.41 -2.21,61.82 -2.21,64.03 -11.04,52.99 -35.33,101.57 -46.37,167.81 -17.66,92.73 -11.04,147.93 39.74,229.62l0 0zm4.42 -536.53c11.04,101.57 -19.87,181.05 -55.2,271.58 -17.66,48.57 -30.91,81.69 -30.91,134.68 0,28.71 -44.16,108.19 -77.28,75.07 -15.45,-15.45 -15.45,-50.78 -8.83,-68.44 6.63,-19.88 19.87,-33.12 33.12,-50.79 68.45,-88.31 112.61,-251.7 139.1,-362.1l0 0zm324.57 44.16c4.41,2.21 2.2,0 2.2,4.42l-4.41 -2.21 2.21 -2.21zm-64.03 2.21c0,6.62 -2.21,17.66 11.04,15.46 11.04,-2.21 6.62,-11.04 6.62,-17.67l8.83 2.21c6.63,13.25 -8.83,26.5 -22.08,24.29 -15.45,-2.21 -17.66,-28.71 -4.41,-24.29zm-165.6 0c15.46,-4.42 13.25,26.5 -11.04,24.29 -17.66,-2.21 -24.28,-28.71 -6.62,-26.5 0,8.83 -2.21,17.67 8.83,17.67 13.25,0 8.83,-11.04 8.83,-15.46l0 0zm-11.04 -205.34c4.42,-6.62 6.63,-8.83 15.46,-6.62 4.41,0 11.04,4.41 15.45,6.62 -4.41,2.21 -2.2,0 -4.41,2.21 -4.42,2.21 0,2.21 -4.42,2.21 -11.04,-4.42 -8.83,-2.21 -22.08,-4.42zm41.95 -15.45c4.42,4.41 13.25,17.66 15.46,22.08 -11.04,-4.42 -11.04,-4.42 -22.08,-6.63 -2.21,-2.21 -4.42,-6.62 -6.62,-11.04 -4.42,-4.41 -6.63,-4.41 -11.04,-6.62 4.41,-11.04 17.66,-2.21 24.28,2.21l0 0zm-28.7 -19.87c22.08,-2.21 8.83,4.41 0,8.83 -15.46,8.83 -15.46,15.45 -26.5,26.49 -15.45,15.46 -30.91,35.33 -41.95,55.2 -22.08,41.95 -33.12,103.77 -48.57,150.14 -26.5,88.32 -57.41,209.75 -108.19,287.03 -15.45,24.29 13.25,-41.95 15.46,-46.37 8.83,-26.49 13.24,-50.78 19.87,-77.27 6.62,-26.5 15.45,-50.79 22.08,-77.28 6.62,-26.5 11.04,-52.99 19.87,-79.49 15.45,-57.4 79.48,-236.25 147.93,-247.28l0 0zm218.58 -39.75l-2.2 -2.21 2.2 2.21c55.2,50.78 101.57,123.65 119.23,196.51 13.25,44.16 15.46,97.15 13.25,145.72 0,24.29 -2.21,48.58 -4.42,75.07l-6.62 70.66c0,-123.65 8.83,-194.3 -39.74,-313.53 -8.83,-19.87 -19.87,-41.95 -30.91,-61.82 -8.84,-17.67 -24.29,-37.54 -33.12,-55.2 -13.25,-22.08 -15.46,-35.33 -37.54,-52.99 -30.91,-28.7 -46.37,-19.87 -61.82,-24.29 15.46,-13.25 41.95,2.21 57.41,4.42l4.41 2.21 -2.21 -2.21 -30.91 -17.67c37.54,-6.62 92.74,35.33 114.82,61.83 11.03,13.24 55.19,110.39 50.78,123.64 -17.67,-33.12 -24.29,-52.99 -48.58,-86.11 -13.24,-19.87 -44.16,-55.2 -64.03,-66.24l0 0zm-70.65 -33.12c4.42,-6.62 24.29,-11.04 30.91,-11.04 13.25,-2.2 24.29,2.21 35.33,6.63 15.45,6.62 37.53,22.08 46.37,37.53 -6.63,-2.2 -15.46,-11.04 -22.08,-15.45 -64.03,-39.75 -81.7,-13.25 -90.53,-17.67l0 0zm-39.74 33.12c0,4.42 0,2.21 2.21,2.21 86.11,-64.03 167.8,134.68 189.88,194.3 48.57,125.85 35.33,240.66 33.12,370.93l-11.04 -66.24c-8.83,-68.44 -8.83,-143.51 -30.91,-205.34 -13.25,-37.53 -86.11,-178.84 -114.81,-200.92 -2.21,0 -2.21,0 -2.21,2.21l33.12 48.58c-11.04,-11.04 -39.75,-48.58 -48.58,-59.62 -13.25,-15.46 -52.99,-50.78 -70.65,-28.7 8.83,4.41 17.66,-2.21 35.32,6.62 33.12,17.67 50.79,46.37 70.66,77.28 26.49,35.33 57.41,77.28 77.28,117.02 44.16,97.15 37.53,220.79 59.61,328.98 -22.08,-33.12 -48.57,-66.24 -61.82,-105.98 -11.04,-37.53 -13.25,-114.81 -6.62,-152.35l19.87 35.33c11.04,-37.54 -75.07,-128.06 -99.36,-158.97 -17.66,-24.29 -64.03,-97.15 -81.69,-114.81 -11.04,-13.25 -41.95,-19.88 -41.95,-2.21 35.32,8.83 19.87,-19.87 70.65,55.2 6.62,8.83 50.78,72.86 50.78,77.27 -11.04,2.21 -66.24,15.46 -66.24,28.71 17.67,8.83 57.41,-13.25 79.49,-13.25l24.29 28.7c2.2,2.21 2.2,2.21 4.41,6.63l2.21 4.41c-4.42,0 -6.62,2.21 -13.25,0 -4.41,-2.21 0,-2.21 -4.41,-2.21 -2.21,-2.2 -4.42,0 -4.42,-2.2 -11.04,0 -68.45,-13.25 -70.65,11.04l8.83 -2.21 -8.83 15.45 2.2 2.21 13.25 -13.25c6.63,8.84 2.21,26.5 26.5,24.29 22.08,-2.21 17.66,-15.45 22.08,-26.49l19.87 6.62c-17.67,30.91 -66.24,15.46 -72.86,19.87l-2.21 2.21 55.2 4.42 -2.21 -2.21 15.45 -4.42 0 -4.41 2.21 2.2 26.5 -15.45c26.49,13.25 8.83,68.44 4.41,90.52 -6.62,24.29 -13.24,70.66 -24.28,90.53 -22.08,33.12 -88.32,97.15 -130.27,101.56 -41.95,2.21 -48.58,-11.04 -79.49,-35.32 -19.87,-15.46 -44.16,-35.33 -57.4,-55.2 -19.88,-28.71 -22.08,-55.2 -28.71,-88.32 -6.62,-26.49 -4.41,-22.08 -2.2,-48.57 2.2,-13.25 -2.21,-46.37 0,-55.2 4.41,0 13.24,4.41 17.66,6.62 4.41,6.63 -6.63,4.42 2.21,6.63 11.04,2.21 0,-8.83 24.28,11.04l59.62 -6.63c-15.46,-4.41 -64.03,11.04 -77.28,-17.66l17.66 -8.83c4.42,8.83 0,24.28 24.29,26.49 24.29,2.21 19.87,-15.45 24.29,-24.28l13.25 13.24 2.2 0 -6.62 -17.66 2.21 2.21 2.21 0 0 -2.21c-15.46,-24.29 -50.79,-8.83 -68.45,-8.83 -2.21,2.21 -2.21,0 -4.42,2.21 -2.2,0 0,0 -4.41,2.2l-24.29 6.63 -4.41 6.62 0 0c-13.25,-81.69 0,-130.27 46.36,-192.09 8.83,-11.04 17.67,-8.83 22.08,-13.25l-8.83 0 0 -4.41 39.74 6.62 -2.21 -4.41 8.84 2.2 2.2 -4.41 19.88 8.83c2.2,-4.42 -24.29,-88.32 -88.32,-28.7 -26.5,24.28 -50.78,64.03 -66.24,97.15 -44.16,88.31 -50.78,158.97 -79.48,249.49 0,-2.21 2.2,-75.07 2.2,-83.9 0,-28.7 -6.62,-52.99 -6.62,-79.49 -6.63,-81.69 57.41,-185.46 130.27,-218.58 50.78,-26.5 86.11,-15.46 121.43,26.49 4.42,-8.83 -19.87,-30.91 -24.28,-33.12 -41.95,-28.7 -94.95,-11.03 -130.27,15.46 -48.58,37.53 -77.28,83.9 -92.73,141.31l0 0c-8.84,4.41 30.91,-83.9 35.32,-90.53 17.67,-33.12 28.71,-50.78 57.41,-75.07 35.32,-30.91 94.94,-57.4 141.31,-39.74 22.07,6.62 22.07,15.46 35.32,28.7 -2.21,-33.12 -46.36,-44.16 -75.07,-44.16 -37.53,2.21 -52.99,15.46 -86.11,30.92 28.71,-26.5 44.16,-48.58 86.11,-52.99 50.79,-8.84 61.82,13.24 88.32,46.36 4.42,-8.83 -19.87,-35.32 -28.7,-41.95 -26.5,-19.87 -37.54,-11.04 -61.83,-13.25 2.21,-4.41 22.08,-11.04 28.71,-13.24 11.04,-4.42 22.08,0 33.12,4.41 22.08,11.04 28.7,26.5 35.32,48.58 4.42,-17.67 -17.66,-50.79 -33.12,-55.2 24.29,-2.21 46.37,28.7 55.2,30.91 -2.21,-15.46 -19.87,-28.7 -33.12,-37.53 22.08,-2.21 77.28,17.66 92.74,33.11 -17.67,2.21 -48.58,8.84 -55.2,26.5 17.66,-6.62 17.66,-15.46 41.95,-17.66 13.25,-2.21 41.95,2.2 44.16,15.45 -13.25,2.21 -35.33,-17.66 -66.24,4.42 -15.46,11.04 -28.7,19.87 -41.95,37.53l0 0zm-443.8 814.73l0 8.83 8.84 0c17.66,-48.57 94.94,-26.49 130.26,-70.65 11.04,-13.25 15.46,-28.71 39.75,-26.5 8.83,6.63 30.91,37.54 48.57,52.99 11.04,8.83 52.99,39.74 66.24,33.12 0,0 -39.74,-35.33 -44.16,-41.95 -6.63,-6.62 -33.12,-46.37 -30.91,-55.2 0,0 39.74,-19.87 48.57,-28.7 15.46,-11.04 26.5,-26.5 33.12,-44.16 19.87,-55.2 2.21,-83.9 -2.21,-134.68 28.71,33.12 72.87,72.86 117.02,72.86 46.37,0 92.74,-39.74 121.44,-72.86 -15.46,66.23 -30.91,145.72 41.95,183.25 30.91,15.46 66.24,26.5 99.36,26.5 19.87,2.21 39.74,2.21 59.61,4.42 13.25,2.2 39.75,13.24 48.58,13.24 2.2,-4.41 -48.58,-24.28 -52.99,-26.49 -19.88,-11.04 -26.5,-28.71 -35.33,-48.58 -17.66,-48.57 -17.66,-92.73 -13.25,-143.51 11.04,-105.98 24.29,-198.72 6.63,-304.7 -11.04,-83.9 -35.33,-165.59 -94.94,-231.83 -66.24,-70.65 -128.06,-101.56 -225.21,-81.69 -64.03,11.04 -143.52,94.94 -178.85,147.93 -19.87,33.12 -39.74,72.86 -50.78,110.4 -17.66,55.19 -6.62,94.94 -2.21,147.93 6.63,97.15 -8.83,187.67 -52.99,273.78 -17.66,35.33 -39.74,70.65 -55.2,108.19 -22.07,48.57 -22.07,79.48 -30.91,128.06l0 0z"/>
   <path class="fil3" d="M416.9 447.49c-26.49,110.4 -70.65,273.79 -139.1,362.1 -13.25,17.67 -26.49,30.92 -33.12,50.79 -6.62,17.66 -6.62,52.99 8.83,68.44 33.12,33.12 77.28,-46.36 77.28,-75.07 0,-52.99 13.25,-86.11 30.91,-134.68 35.33,-90.53 66.24,-170.01 55.2,-271.58l0 0z"/>
   <path class="fil3" d="M514.05 253.2c-68.45,11.03 -132.48,189.88 -147.93,247.28 -8.83,26.5 -13.25,52.99 -19.87,79.49 -6.63,26.49 -15.46,50.78 -22.08,77.28 -6.63,26.49 -11.04,50.78 -19.87,77.27 -2.21,4.42 -30.92,70.66 -15.46,46.37 50.78,-77.28 81.69,-198.71 108.19,-287.03 15.45,-46.37 26.49,-108.19 48.57,-150.14 11.04,-19.87 26.5,-39.74 41.95,-55.2 11.04,-11.04 11.04,-17.66 26.5,-26.49 8.83,-4.42 22.08,-11.04 0,-8.83l0 0z"/>
   <path class="fil3" d="M732.63 213.45c-4.41,0 -4.41,0 -6.62,-2.21 -2.21,-2.2 -2.21,-2.2 -4.42,-4.41 -4.41,-2.21 -11.04,-4.42 -13.24,-8.83 -15.46,-2.21 -41.95,-17.67 -57.41,-4.42 15.46,4.42 30.91,-4.42 61.82,24.29 22.08,17.66 24.29,30.91 37.54,52.99 8.83,17.66 24.28,37.53 33.12,55.2 11.04,19.87 22.07,41.95 30.91,61.82 48.57,119.23 39.74,189.88 39.74,313.52l6.62 -70.65c2.21,-26.49 4.42,-50.78 4.42,-75.07 2.21,-48.57 0,-101.56 -13.25,-145.72 -17.66,-72.86 -64.03,-145.73 -119.23,-196.51l0 0z"/>
   <path class="fil3" d="M840.82 860.38c-4.41,-17.67 -11.04,-33.12 -19.87,-48.58 -4.41,-8.83 -50.78,-79.48 -52.99,-81.69 0,0 8.83,108.19 11.04,119.23 2.21,17.66 6.62,33.12 17.66,48.57 6.63,11.04 33.12,28.7 41.96,22.08 8.83,-6.62 4.41,-48.57 2.2,-59.61l0 0z"/>
   <path class="fil3" d="M452.23 727.9c0,-8.83 2.21,-30.91 -2.21,-39.74 0,-2.21 -11.04,-24.29 -11.04,-24.29 0,0 -13.25,59.62 -15.46,66.24 -13.24,41.95 -30.91,83.9 -39.74,125.85 -2.21,13.25 -2.21,64.03 11.04,64.03 17.66,2.21 11.04,-17.66 13.25,-28.7 4.41,-39.74 37.53,-88.32 44.16,-163.39z"/>
   <path class="fil3" d="M412.48 984.02c-50.78,-81.69 -57.4,-136.89 -39.74,-229.62 11.04,-66.24 35.33,-114.82 46.37,-167.81 0,-2.21 8.83,-68.44 2.21,-64.03 -6.63,99.36 -37.54,152.35 -68.45,240.67 -28.7,86.11 -13.25,161.18 59.62,220.79l-0.01 0z"/>
   <path class="fil3" d="M893.81 924.41c-19.87,-28.71 -30.91,-48.58 -39.74,-81.7 -13.25,-59.61 -64.03,-86.11 -79.48,-161.18 -4.42,-19.87 -4.42,-37.53 -4.42,-55.19 0,-8.84 2.21,-57.41 2.21,-59.62 -13.25,26.5 -19.87,72.86 -15.46,101.57 6.63,33.12 17.67,55.19 37.54,81.69 24.28,35.33 55.19,79.48 59.61,123.64 2.21,26.5 -6.62,28.71 -8.83,50.79l48.57 0 0 0z"/>
   <path class="fil3" d="M748.09 668.29c-15.46,13.24 -4.42,41.95 -4.42,59.61 0,26.5 0,52.99 0,77.28 2.21,35.33 11.04,94.94 52.99,103.77 -11.04,-19.87 -17.66,-24.29 -22.07,-50.78 -8.84,-37.54 -8.84,-165.6 -26.5,-189.88z"/>
   <path class="fil3" d="M765.75 895.7c-6.62,-15.45 -15.45,-22.08 -22.08,-44.16 -11.03,-39.74 -4.41,-77.27 -6.62,-117.02 0,-11.04 2.21,-59.61 -11.04,-24.28 -17.66,52.99 -28.7,163.38 39.74,185.46z"/>
   <path class="fil3" d="M193.9 1010.52c17.66,-8.84 26.49,-15.46 48.57,-22.08 35.33,-6.63 66.24,-13.25 79.49,-55.2 2.21,-8.83 11.04,-50.78 8.83,-59.62 -4.42,24.29 -26.49,64.03 -44.16,79.49 -13.25,11.04 -26.49,17.66 -44.16,17.66 -30.91,0 -30.91,-19.87 -39.74,-22.08l-8.83 61.83 0 0z"/>
   <path class="fil3" d="M710.56 198c4.41,0 22.07,11.04 22.07,15.45 19.88,11.04 50.79,46.37 64.03,66.24 24.29,33.12 30.92,52.99 48.58,86.11 4.41,-13.25 -39.74,-110.4 -50.78,-123.64 -22.08,-26.5 -77.28,-68.45 -114.82,-61.83l30.92 17.67 0 0z"/>
   <path class="fil3" d="M469.89 754.4c0,-11.04 -8.83,-59.62 -11.04,-50.79 0,2.21 -4.41,50.79 -6.62,59.62 -6.63,39.74 -19.87,68.44 -30.91,103.77 -2.21,6.63 -19.88,55.2 2.2,39.74 28.71,-22.08 13.25,-8.83 22.08,-44.15 6.63,-37.54 19.87,-68.45 24.29,-108.19l0 0z"/>
   <path class="fil3" d="M295.46 933.24c-11.04,2.21 -26.49,22.08 -48.57,-2.21 -15.46,-19.87 -8.83,-35.33 -11.04,-55.2 -4.42,2.21 -17.66,35.33 -19.87,41.95 -6.63,15.46 -15.46,24.29 2.21,37.54 24.28,19.87 68.44,2.21 77.27,-22.08z"/>
   <path class="fil3" d="M377.16 816.22c6.62,-22.08 70.65,-207.55 50.78,-214.17l0 0c-11.04,19.87 -59.61,203.13 -50.78,214.17l0 0z"/>
   <path class="fil3" d="M544.96 692.57c8.83,22.08 28.7,26.5 50.78,26.5 24.29,0 37.54,-4.42 48.58,-26.5 -17.67,-13.24 -33.12,-4.41 -50.79,-4.41 -17.66,0 -28.7,-8.83 -48.57,4.41z"/>
   <path class="fil2" d="M544.96 692.57c19.87,-13.24 30.91,-4.41 48.57,-4.41 17.67,0 33.12,-8.83 50.79,4.41 -11.04,22.08 -24.29,26.5 -48.58,26.5 -22.08,0 -41.95,-4.42 -50.78,-26.5zm-4.42 -6.62c2.21,-4.42 17.67,-17.66 22.08,-19.87 15.46,-11.04 15.46,-2.21 33.12,-2.21 15.46,0 15.46,-8.83 30.91,2.21 6.63,2.21 22.08,15.45 22.08,19.87 -6.62,2.21 -19.87,-4.42 -26.49,-6.62 -8.83,-2.21 -19.87,4.41 -28.7,4.41 -8.84,0 -17.67,-6.62 -26.5,-4.41 -6.62,2.2 -19.87,8.83 -26.5,6.62zm28.71 -30.91c-11.04,4.42 -19.87,15.45 -28.71,22.08 -6.62,6.62 -11.03,2.21 -4.41,11.04 2.21,4.41 4.41,11.04 8.83,15.45 15.46,24.29 52.99,24.29 79.49,17.67 13.24,-4.42 17.66,-13.25 24.28,-26.5 13.25,-22.08 11.04,-6.62 -4.41,-22.08 -33.12,-33.12 -35.33,-11.04 -52.99,-13.24 -8.84,-2.21 -13.25,-6.63 -22.08,-4.42l0 0z"/>
   <path class="fil2" d="M436.77 447.49c0,0 59.62,4.42 70.66,6.63 11.04,4.41 19.87,6.62 30.91,8.83 6.62,2.21 35.32,4.42 17.66,-6.62 -13.25,-8.84 -41.95,-19.88 -57.41,-22.08 -13.24,-2.21 -57.4,0 -61.82,13.24l0 0z"/>
   <path class="fil3" d="M540.54 685.95c6.63,2.21 19.88,-4.42 26.5,-6.62 8.83,-2.21 17.66,4.41 26.5,4.41 8.83,0 19.87,-6.62 28.7,-4.41 6.62,2.2 19.87,8.83 26.49,6.62 0,-4.42 -15.45,-17.66 -22.08,-19.87 -15.45,-11.04 -15.45,-2.21 -30.91,-2.21 -17.66,0 -17.66,-8.83 -33.12,2.21 -4.41,2.21 -19.87,15.45 -22.08,19.87z"/>
   <path class="fil3" d="M377.16 858.17c8.83,-37.54 70.65,-200.92 57.4,-220.79 -4.41,15.45 -6.62,37.53 -13.24,55.19 -6.63,22.08 -55.2,158.98 -44.16,163.39l0 2.21 0 0z"/>
   <path class="fil3" d="M474.31 761.02c0,2.21 -11.04,55.2 -13.25,64.03 -2.21,6.62 -19.87,61.82 -13.25,59.61 26.5,-8.83 35.33,-99.35 26.5,-123.64z"/>
   <path class="fil2" d="M582.5 975.19c0,6.62 6.62,11.04 8.83,15.45 -4.42,0 -70.66,-15.45 -86.11,-13.24 13.25,6.62 48.57,11.04 66.24,15.45 11.03,2.21 22.07,6.63 33.11,11.04 6.63,2.21 22.08,13.25 28.71,11.04 0,-6.62 -19.87,-17.66 -24.29,-22.08 -6.62,-2.21 -22.08,-17.66 -26.49,-17.66z"/>
   <path class="fil2" d="M613.41 239.95c11.04,2.21 19.87,-22.08 50.78,-6.63 19.87,8.83 37.53,26.5 41.95,28.71 -6.62,-15.46 -41.95,-52.99 -72.86,-39.75 -6.63,2.21 -19.87,11.04 -19.87,17.67l0 0z"/>
   <path class="fil3" d="M661.98 180.33c8.83,4.42 26.5,-22.08 90.53,17.67 6.62,4.41 15.45,13.25 22.08,15.45 -8.84,-15.45 -30.92,-30.91 -46.37,-37.53 -11.04,-4.42 -22.08,-8.83 -35.33,-6.63 -6.62,0 -26.49,4.42 -30.91,11.04l0 0z"/>
   <path class="fil3" d="M511.84 493.86c0,4.42 4.42,15.46 -8.83,15.46 -11.04,0 -8.83,-8.84 -8.83,-17.67 -17.66,-2.21 -11.04,24.29 6.62,26.5 24.29,2.21 26.5,-28.71 11.04,-24.29l0 0z"/>
   <path class="fil3" d="M677.44 493.86c-13.25,-4.42 -11.04,22.08 4.41,24.29 13.25,2.21 28.71,-11.04 22.08,-24.29l-8.83 -2.21c0,6.63 4.42,15.46 -6.62,17.67 -13.25,2.2 -11.04,-8.84 -11.04,-15.46z"/>
   <path class="fil3" d="M518.47 270.86c4.41,2.21 6.62,2.21 11.03,6.62 2.21,4.42 4.42,8.83 6.63,11.04 11.04,2.21 11.04,2.21 22.08,6.63 -2.21,-4.42 -11.04,-17.67 -15.46,-22.08 -6.62,-4.42 -19.87,-13.25 -24.28,-2.21l0 0z"/>
   <path class="fil3" d="M352.87 931.03l-13.25 -26.49c0,0 -6.62,30.91 -6.62,33.11l19.87 -6.62z"/>
   <path class="fil2" d="M721.59 478.4l4.42 2.21c0,-2.21 0,-2.21 0,-4.41 -4.42,0 -8.83,-2.21 -13.25,-4.42 -6.62,0 -11.04,0 -17.66,0 -6.62,-2.21 -26.5,0 -28.7,6.62 6.62,0 17.66,-4.41 28.7,-2.2 8.83,0 17.66,2.2 26.49,2.2z"/>
   <path class="fil2" d="M465.47 476.2c-2.2,4.41 -2.2,2.2 0,4.41l4.42 -2.21c19.87,-2.2 24.29,-4.41 46.37,-2.2 4.41,2.2 4.41,2.2 8.83,0 -6.62,-4.42 -22.08,-6.63 -30.91,-4.42 -19.87,0 -22.08,4.42 -28.71,4.42z"/>
   <path class="fil3" d="M500.8 288.52c13.25,2.21 11.04,0 22.08,4.42 4.42,0 0,0 4.42,-2.21 2.21,-2.21 0,0 4.41,-2.21 -4.41,-2.21 -11.04,-6.62 -15.45,-6.62 -8.83,-2.21 -11.04,0 -15.46,6.62z"/>
   <path class="fil2" d="M679.64 1001.68c4.42,-4.41 6.63,-2.2 8.84,-6.62 -13.25,-2.21 -30.92,8.83 -35.33,19.87l26.49 -13.25z"/>
   <path class="fil4" d="M575.87 540.23c4.42,-8.83 2.21,-33.12 -4.41,-41.95l4.41 41.95z"/>
   <path class="fil2" d="M580.29 732.32c6.62,4.41 22.08,2.2 30.91,0 -8.83,-2.21 -22.08,-4.42 -30.91,0z"/>
   <path class="fil2" d="M562.62 630.75c-6.62,-13.25 0,-13.25 0,-19.87 -8.83,2.21 -15.45,17.66 0,19.87z"/>
   <path class="fil2" d="M628.86 628.54c13.25,-2.2 6.63,-15.45 -2.21,-17.66 0,4.42 2.21,2.21 2.21,6.62 2.21,4.42 0,6.63 0,11.04z"/>
   <path class="fil5" d="M708.35 198c2.21,4.41 8.83,6.62 13.24,8.83 2.21,2.21 2.21,2.21 4.42,4.42 2.21,2.2 2.21,2.2 6.63,2.2l-2.21 -2.2 2.21 2.2c0,-4.41 -17.67,-15.45 -22.08,-15.45l2.2 2.21 -4.41 -2.21 0 0z"/>
   <path class="fil3" d="M726.01 489.44c6.63,2.21 8.83,0 13.25,0l-2.21 -4.41c-4.42,-2.21 -4.42,-2.21 -8.83,-2.21l-2.21 4.42 0 2.2z"/>
   <path class="fil2" d="M602.37 632.96c2.2,0 15.45,-4.42 17.66,-6.62 -6.62,-6.63 -13.25,0 -17.66,6.62z"/>
   <path class="fil6" d="M721.59 478.4c2.21,4.42 2.21,2.21 6.63,4.42 -2.21,2.21 -6.63,2.21 -11.04,2.21 0,2.21 2.21,0 4.42,2.21 4.41,0 0,0 4.41,2.2l0 -2.2 2.21 -4.42c4.42,0 4.42,0 8.83,2.21 -2.21,-4.42 -2.21,-4.42 -4.41,-6.63 -2.21,2.21 0,2.21 -2.21,0 -4.42,0 -2.21,0 -4.42,-2.2 0,2.2 0,2.2 0,4.41l-4.42 -2.21z"/>
   <path class="fil6" d="M463.27 489.44c4.41,-2.2 2.21,-2.2 4.41,-2.2 2.21,-2.21 2.21,0 4.42,-2.21 -4.42,0 -6.62,0 -8.83,-2.21 2.21,-2.21 2.21,0 6.62,-4.42l-4.41 2.21c-2.21,-2.21 -2.21,0 0,-4.41 -4.42,2.2 -11.04,4.41 -13.25,6.62l8.83 0c2.21,2.21 2.21,2.21 2.21,6.62l0 0z"/>
   <path class="fil4" d="M569.25 628.54l13.25 2.21c-2.21,-6.62 -11.04,-8.83 -13.25,-2.21z"/>
   <path class="fil5" d="M688.48 310.6c0,-2.21 0,-2.21 2.2,-2.21 -2.2,-2.2 -4.41,-4.41 -6.62,-6.62 0,4.42 2.21,6.62 4.42,8.83l0 0z"/>
   <path class="fil5" d="M624.45 215.66c-2.21,0 -2.21,2.21 -2.21,-2.21 -2.21,2.21 -2.21,4.42 -4.42,6.63 4.42,0 4.42,-2.21 6.63,-4.42z"/>
   <path class="fil5" d="M538.34 496.07c2.2,2.21 2.2,2.21 6.62,2.21 -2.21,-2.21 -2.21,-2.21 -4.42,-4.42l0 2.21 -2.2 0z"/>
   <path class="fil7" d="M739.26 493.86l4.41 2.21c0,-4.42 2.21,-2.21 -2.2,-4.42l-2.21 2.21z"/>
  </g>
 </g>
</svg>
