<svg xmlns="http://www.w3.org/2000/svg" clip-rule="evenodd" fill-rule="evenodd" height="500" image-rendering="optimizeQuality" shape-rendering="geometricPrecision" text-rendering="geometricPrecision" width="500" style=""><rect id="backgroundrect" width="100%" height="100%" x="0" y="0" fill="none" stroke="none"/><g class="currentLayer" style=""><title>Layer 1</title><path d="m61 148c-2 3-5 4-8 7-31 23-28 45-28 78v181c0 22 9 31 23 39 24 15 65 22 99 22 36 0 74-6 100-22 16-9 23-19 23-37-1-20 0-41 0-61 0-40-1-81-1-121 1-39 3-55-27-79-1-1-2-2-4-3-2-2-1 0-3-2s-1-1-2-2c21-10 20-27 20-42 0-21 3-41-9-53-19-20-60-28-97-28-34 0-77 8-96 27-13 13-9 31-9 53 0 17-1 32 19 43z" fill="#63b7e6" id="svg_1" class="" stroke-opacity="1" stroke="#63b7e6" fill-opacity="1"/><path d="m50 189c8 16 59 25 81 26 12 1 27-2 26 11 0 12-13 10-25 9-21-1-41-4-61-10-10-4-17-8-25-12-2 40 0 83 0 123v61c0 9-3 23 1 29s11 10 18 13c44 21 143 22 178-8 8-7 6-12 6-25 0-41 0-82 0-123 0-20 0-41 0-61 0-9 1-21-2-29-5-14-18-23-31-31-9-5-12-2-24 1-26 5-57 5-84 1-7-1-20-6-25-4-11 5-30 19-33 29z" fill="#e3f7fe" id="svg_2"/><path d="m394 278c-6 2-33 39-39 48-19 29-41 58-29 95 9 33 42 56 77 54 46-3 85-49 67-99-12-33-39-66-61-92-3-4-7-10-15-6z" fill="#63b7e6" id="svg_3" class="" fill-opacity="1"/><path d="m91 281c-10 4-7 14-7 26v68c0 11-3 24 5 29 23 12 92 13 116 0 8-5 6-16 6-27v-68c0-10 3-24-6-28-5-2-19 3-26 5-19 4-43 4-62 0-6-1-22-7-26-5z" fill="#63b7e6" id="svg_4" class="" fill-opacity="1"/><g fill="#e3f7fe" id="svg_5" class=""><path d="m398 303c-4 4-23 31-28 37-7 12-18 27-23 42-15 37 16 72 51 72 36 0 66-34 53-71-7-17-40-70-53-80z" id="svg_6"/><path d="m104 388c16 3 26 5 43 5 12 0 34-2 43-6l1-82c-16 2-27 4-44 4-16 0-28-2-43-4z" id="svg_7"/><path d="m126 47c-16 1-31 4-45 10-15 6-27 16-8 27 57 34 197 4 149-23-24-14-65-18-96-14z" id="svg_8"/><path d="m232 102c-7 1-27 17-85 18-20 0-47-3-66-10-6-2-13-7-18-8 0 18-6 26 27 36 36 12 107 12 136-10 8-6 6-13 6-26z" id="svg_9"/></g><g fill="#63b7e6" id="svg_10" class="" stroke-opacity="1" stroke="#63b7e6" fill-opacity="1"><path d="m321 62c-5 1-10 7-6 14 3 6 10 6 17 6 23 0 129 1 136-1 5-1 9-7 6-14-3-6-10-6-18-6-21 0-130-1-135 1z" id="svg_11" stroke="#63b7e6" fill="#63b7e6"/><path d="m368 116c-12 2-11 17-2 19 4 2 97 2 101 1 10-3 10-17 1-20-5-1-96-1-100 0z" id="svg_12" stroke="#63b7e6" fill="#63b7e6"/><path d="m410 171c-5 2-8 9-4 15 4 5 11 4 18 4 8 0 40 1 45-1 4-2 8-8 4-15-3-5-11-4-19-4s-38-2-44 1z" id="svg_13" stroke="#63b7e6" fill="#63b7e6"/></g></g></svg>