<svg xmlns="http://www.w3.org/2000/svg" clip-rule="evenodd" fill-rule="evenodd" height="591" image-rendering="optimizeQuality" shape-rendering="geometricPrecision" text-rendering="geometricPrecision" width="591" style=""><rect id="backgroundrect" width="100%" height="100%" x="0" y="0" fill="none" stroke="none"/><g class="currentLayer" style=""><title>Layer 1</title><g fill="#63b7e6" id="svg_1" class="selected" fill-opacity="1"><path d="m94 78c7 3 11 7 19 11 42 21 93 24 136 3 9-5 17-9 25-15 6-5 17-13 21-19 3 2 11 11 21 19 9 6 16 9 26 14 35 18 78 19 115 7 11-4 20-8 30-14 3-2 6-5 10-6v291c0 16 0 20-7 35-7 14-15 26-24 38-2 3-3 4-5 6s-3 3-5 6l-21 20c-8 7-16 13-24 18-12 8-20 13-32 20-3 1-5 2-7 3-11 6-65 29-76 30-8 0-52-18-61-22-30-12-70-38-94-63-20-22-35-39-45-69-3-9-2-50-2-62zm198-48h5c7 1 14 11 22 19 5 5 17 13 24 17 48 26 101 22 144-10 8-6 15-15 20-15 8 0 13 4 13 13v329c0 7-3 15-5 21-6 16-24 45-34 57-33 36-64 59-110 80-12 6-64 27-75 27-9 0-48-14-59-19-32-14-51-23-81-45-21-16-35-30-52-50-10-13-33-52-33-68v-334c0-6 9-19 23-4 8 8 22 17 32 22 14 7 36 13 58 13 32 0 67-14 89-35 4-4 7-7 10-11 4-4 7-7 9-7z" id="svg_2" fill="#63b7e6"/><path d="m184 265h89v-89h44v89h90v44h-87c-2 0-3 1-3 4v87h-44v-91h-89zm66-23h-90v90h90v88c0 2 0 3 3 3h87v-91h91v-87c0-2-1-3-4-3h-87v-89h-90z" id="svg_3" fill="#63b7e6"/></g></g></svg>