<svg xmlns="http://www.w3.org/2000/svg" clip-rule="evenodd" fill-rule="evenodd" height="500" image-rendering="optimizeQuality" shape-rendering="geometricPrecision" text-rendering="geometricPrecision" width="500" style=""><rect id="backgroundrect" width="100%" height="100%" x="0" y="0" fill="none" stroke="none"/><g class="currentLayer" style=""><title>Layer 1</title><g fill="#63b7e6" id="svg_1" class="" fill-opacity="1"><path d="m244 455c-68 0-129-33-168-88-33-45-46-108-33-163 7-27 19-57 37-78 7-9 9-12 18-21 44-44 118-74 191-56 36 9 58 21 86 42 9 8 17 17 25 26 8 8 16 21 22 30 24 41 34 99 22 148-5 18-12 39-21 55-2 3-3 5-5 8l-22 29c-2 3-2 1-3 3-2 2-2 3-4 4l-20 18c-36 27-78 43-125 43zm-22-429h43c29 0 70 16 96 31l22 16c19 15 23 22 38 38l15 22c3 5 6 11 9 16 10 22 22 55 22 79v42c-1 13-3 25-8 46-5 16-13 31-21 45l-15 24c-8 10-15 18-25 27-17 18-27 23-45 34l-17 9c-24 11-56 18-87 19h-14c-17-1-33-3-46-7-15-4-26-6-40-14-13-6-23-11-35-20-40-29-65-62-83-108-10-27-12-55-12-84 0-16 3-34 6-47 5-14 8-26 14-38 8-16 9-19 19-33 2-3 3-5 5-8s4-4 6-7l26-27c2-2 2-2 4-3 22-19 52-36 79-44 21-5 32-7 44-8z" id="svg_2" fill="#63b7e6"/><path d="m240 418c52 0 82-17 115-49 10-10 21-29 27-42 1-4 1-5 3-7 3-9 6-21 7-32 3-13 6-29-9-29-11 0-9 14-10 24-2 22-11 45-24 63-9 11-15 17-27 26-19 16-45 24-70 26-12 1-11 1-24 0-19-2-36-9-52-18-13-8-27-21-37-33-40-55-14-88-37-88-12 0-9 19-7 28 8 51 35 92 82 115 17 9 37 16 63 16z" id="svg_3" fill="#63b7e6"/><path d="m290 222c12 0 9-15 13-23 10-18 38-20 49 0 5 8 1 23 13 23 21 0 10-57-40-57-7 0-17 4-21 7-6 4-11 7-15 13-8 11-14 37 1 37z" id="svg_4" fill="#63b7e6"/><path d="m112 211c0 12 16 15 19 3 2-6 0-7 4-14 9-17 28-19 41-11 3 3 6 6 8 10 4 8 1 23 13 23 19 0 9-57-40-57-24 0-45 22-45 46z" id="svg_5" fill="#63b7e6"/></g></g></svg>